{"title":"Looper 2012 KORSUB 720p HDRip x264 AC3-JYK","uid":7781986,"size":2573070667,"categoryP":"video","categoryS":"hd___movies","magnet":"?xt=urn:btih:886f49a36bb3404021ddb189d87351c959370539&amp;dn=Looper+2012+KORSUB+720p+HDRip+x264+AC3-JYK&amp;tr=udp%3A%2F%2Ftracker.openbittorrent.com%3A80&amp;tr=udp%3A%2F%2Fopen.demonii.com%3A1337&amp;tr=udp%3A%2F%2Ftracker.coppersurfer.tk%3A6969&amp;tr=udp%3A%2F%2Fexodus.desync.com%3A6969","seeders":1,"leechers":0,"uploader":"tykoon123","files":-1,"time":1351796484,"description":"Poster: &lt;a href=&quot;\nhttp://img515.imageshack.us/img515/1349/looper2012moviebannerpo.jpg&quot; rel=&quot;nofollow&quot; target=&quot;_NEW&quot;&gt;\nhttp://img515.imageshack.us/img515/1349/looper2012moviebannerpo.jpg&lt;/a&gt;\n\nInfo:\nFormat version : Version 2\nFile size : 2.40 GiB\nDuration : 1h 58mn\nOverall bit rate : 2 888 Kbps\nEncoded date : UTC 2012-11-01 15:08:21\nWriting application : mkvmerge v5.6.0 ('Kenya Kane') built on May 27 2012 16:44:04\nWriting library : libebml v1.2.3 + libmatroska v1.3.0\n\nVideo\nID : 1\nFormat : AVC\nFormat/Info : Advanced Video Codec\nFormat profile : &lt;a class=&quot;__cf_email__&quot; href=&quot;/cdn-cgi/l/email-protection&quot; data-cfemail=&quot;a2eacbc5cae2ee968c93&quot;&gt;[email&amp;#160;protected]&lt;/a&gt;&lt;script cf-hash='f9e31' type=&quot;text/javascript&quot;&gt;\n/* &lt;![CDATA[ */!function(){try{var t=&quot;currentScript&quot;in document?document.currentScript:function(){for(var t=document.getElementsByTagName(&quot;script&quot;),e=t.length;e--;)if(t[e].getAttribute(&quot;cf-hash&quot;))return t[e]}();if(t&amp;&amp;t.previousSibling){var e,r,n,i,c=t.previousSibling,a=c.getAttribute(&quot;data-cfemail&quot;);if(a){for(e=&quot;&quot;,r=parseInt(a.substr(0,2),16),n=2;a.length-n;n+=2)i=parseInt(a.substr(n,2),16)^r,e+=String.fromCharCode(i);e=document.createTextNode(e),c.parentNode.replaceChild(e,c)}}}catch(u){}}();/* ]]&gt; */&lt;/script&gt;\nFormat settings, CABAC : Yes\nFormat settings, ReFrames : 4 frames\nCodec ID : V_MPEG4/ISO/AVC\nDuration : 1h 58mn\nBit rate : 2 750 Kbps\nWidth : 1 280 pixels\nHeight : 544 pixels\nDisplay aspect ratio : 2.35:1\nFrame rate : 23.976 fps\nColor space : YUV\nChroma subsampling : 4:2:0\nBit depth : 8 bits\nScan type : Progressive\nBits/(Pixel*Frame) : 0.165\nStream size : 2.24 GiB (94%)\nWriting library : x264 core 125 r2200bm 999b753\nDefault : Yes\nForced : No\n\nAudio\nID : 2\nFormat : AC-3\nFormat/Info : Audio Coding 3\nMode extension : CM (complete main)\nFormat settings, Endianness : Big\nCodec ID : A_AC3\nDuration : 1h 58mn\nBit rate mode : Constant\nBit rate : 128 Kbps\nChannel(s) : 6 channels\nChannel positions : Front: L C R, Side: L R, LFE\nSampling rate : 44.1 KHz\nBit depth : 16 bits\nCompression mode : Lossy\nStream size : 109 MiB (4%)\nLanguage : English\nDefault : Yes\nForced : No\n\n\n\nSCREENS: &lt;a href=&quot;\nhttp://img40.imageshack.us/img40/147/aaamkvmuxedmkv002013379.jpg&quot; rel=&quot;nofollow&quot; target=&quot;_NEW&quot;&gt;\nhttp://img40.imageshack.us/img40/147/aaamkvmuxedmkv002013379.jpg&lt;/a&gt; &lt;a href=&quot;\nhttp://img707.imageshack.us/img707/7638/aaamkvmuxedmkv005335796.jpg&quot; rel=&quot;nofollow&quot; target=&quot;_NEW&quot;&gt;\nhttp://img707.imageshack.us/img707/7638/aaamkvmuxedmkv005335796.jpg&lt;/a&gt; &lt;a href=&quot;\nhttp://img12.imageshack.us/img12/4276/aaamkvmuxedmkv004907611.jpg&quot; rel=&quot;nofollow&quot; target=&quot;_NEW&quot;&gt;\nhttp://img12.imageshack.us/img12/4276/aaamkvmuxedmkv004907611.jpg&lt;/a&gt; &lt;a href=&quot;\nhttp://img62.imageshack.us/img62/4638/aaamkvmuxedmkv003947594.jpg&quot; rel=&quot;nofollow&quot; target=&quot;_NEW&quot;&gt;\nhttp://img62.imageshack.us/img62/4638/aaamkvmuxedmkv003947594.jpg&lt;/a&gt;","torrent":{"xt":"urn:btih:886f49a36bb3404021ddb189d87351c959370539","amp;dn":"Looper+2012+KORSUB+720p+HDRip+x264+AC3-JYK","amp;tr":["udp%3A%2F%2Ftracker.openbittorrent.com%3A80","udp%3A%2F%2Fopen.demonii.com%3A1337","udp%3A%2F%2Ftracker.coppersurfer.tk%3A6969","udp%3A%2F%2Fexodus.desync.com%3A6969"],"infoHash":"886f49a36bb3404021ddb189d87351c959370539","infoHashBuffer":{"type":"Buffer","data":[136,111,73,163,107,179,64,64,33,221,177,137,216,115,81,201,89,55,5,57]},"announce":[],"urlList":[]}}